<mxfile host="app.diagrams.net" modified="2024-07-11T07:57:43.631Z" agent="Mozilla/5.0 (Windows NT 10.0; Win64; x64) AppleWebKit/537.36 (KHTML, like Gecko) Chrome/126.0.0.0 Safari/537.36" etag="M8g-mGUx3obe1B94aRJo" version="24.4.13" type="device">
  <diagram name="Страница — 1" id="XSUm9hnaPyqpcyByxgyH">
    <mxGraphModel dx="2057" dy="2775" grid="1" gridSize="10" guides="1" tooltips="1" connect="1" arrows="1" fold="1" page="1" pageScale="1" pageWidth="827" pageHeight="1169" math="0" shadow="0">
      <root>
        <mxCell id="0" />
        <mxCell id="1" parent="0" />
        <mxCell id="XyXh-LPCTBvs2xRVVJFw-1" value="" style="rounded=0;whiteSpace=wrap;html=1;" parent="1" vertex="1">
          <mxGeometry x="170" y="50" width="460" height="390" as="geometry" />
        </mxCell>
        <mxCell id="cLkhvZupjhJeQ4Qh2MIf-12" style="rounded=0;orthogonalLoop=1;jettySize=auto;html=1;exitX=0;exitY=0.3333333333333333;exitDx=0;exitDy=0;exitPerimeter=0;entryX=1;entryY=0;entryDx=0;entryDy=0;endArrow=none;endFill=0;" edge="1" parent="1" source="XyXh-LPCTBvs2xRVVJFw-11" target="XyXh-LPCTBvs2xRVVJFw-22">
          <mxGeometry relative="1" as="geometry" />
        </mxCell>
        <mxCell id="XyXh-LPCTBvs2xRVVJFw-11" value="&lt;font face=&quot;Times New Roman&quot;&gt;Пользователь&lt;/font&gt;" style="shape=umlActor;verticalLabelPosition=bottom;verticalAlign=top;html=1;outlineConnect=0;" parent="1" vertex="1">
          <mxGeometry x="405" y="-40" width="30" height="60" as="geometry" />
        </mxCell>
        <mxCell id="XyXh-LPCTBvs2xRVVJFw-12" value="&lt;font face=&quot;Times New Roman&quot;&gt;изменять список своих сообщений&lt;/font&gt;" style="ellipse;whiteSpace=wrap;html=1;" parent="1" vertex="1">
          <mxGeometry x="520" y="65" width="100" height="50" as="geometry" />
        </mxCell>
        <mxCell id="XyXh-LPCTBvs2xRVVJFw-13" value="&lt;font face=&quot;Times New Roman&quot;&gt;создавать сообщения&lt;/font&gt;" style="ellipse;whiteSpace=wrap;html=1;" parent="1" vertex="1">
          <mxGeometry x="440" y="180" width="60" height="50" as="geometry" />
        </mxCell>
        <mxCell id="XyXh-LPCTBvs2xRVVJFw-14" value="&lt;font face=&quot;Times New Roman&quot;&gt;изменять сообщения&lt;/font&gt;" style="ellipse;whiteSpace=wrap;html=1;" parent="1" vertex="1">
          <mxGeometry x="507.5" y="190" width="60" height="45" as="geometry" />
        </mxCell>
        <mxCell id="XyXh-LPCTBvs2xRVVJFw-15" value="&lt;font face=&quot;Times New Roman&quot;&gt;удалять сообщения&lt;/font&gt;" style="ellipse;whiteSpace=wrap;html=1;" parent="1" vertex="1">
          <mxGeometry x="560" y="165" width="60" height="40" as="geometry" />
        </mxCell>
        <mxCell id="XyXh-LPCTBvs2xRVVJFw-16" value="&lt;font face=&quot;Times New Roman&quot;&gt;скачивать вложенные файлы&lt;/font&gt;" style="ellipse;whiteSpace=wrap;html=1;" parent="1" vertex="1">
          <mxGeometry x="310" y="170" width="95" height="60" as="geometry" />
        </mxCell>
        <mxCell id="XyXh-LPCTBvs2xRVVJFw-17" value="&lt;font face=&quot;Times New Roman&quot;&gt;отклонять сообщения&lt;/font&gt;" style="ellipse;whiteSpace=wrap;html=1;" parent="1" vertex="1">
          <mxGeometry x="430" y="80" width="80" height="47.5" as="geometry" />
        </mxCell>
        <mxCell id="XyXh-LPCTBvs2xRVVJFw-18" value="&lt;font face=&quot;Times New Roman&quot;&gt;принимать сообщения&lt;/font&gt;" style="ellipse;whiteSpace=wrap;html=1;" parent="1" vertex="1">
          <mxGeometry x="374" y="125" width="80" height="46" as="geometry" />
        </mxCell>
        <mxCell id="XyXh-LPCTBvs2xRVVJFw-22" value="&lt;font face=&quot;Times New Roman&quot;&gt;просматривать список сообщений&lt;/font&gt;" style="ellipse;whiteSpace=wrap;html=1;" parent="1" vertex="1">
          <mxGeometry x="220" y="57.5" width="110" height="70" as="geometry" />
        </mxCell>
        <mxCell id="cLkhvZupjhJeQ4Qh2MIf-10" style="rounded=0;orthogonalLoop=1;jettySize=auto;html=1;exitX=0;exitY=0.3333333333333333;exitDx=0;exitDy=0;exitPerimeter=0;entryX=1;entryY=0;entryDx=0;entryDy=0;endArrow=none;endFill=0;" edge="1" parent="1" source="XyXh-LPCTBvs2xRVVJFw-37" target="cLkhvZupjhJeQ4Qh2MIf-9">
          <mxGeometry relative="1" as="geometry" />
        </mxCell>
        <mxCell id="XyXh-LPCTBvs2xRVVJFw-37" value="&lt;font face=&quot;Times New Roman&quot;&gt;Администратор&lt;/font&gt;" style="shape=umlActor;verticalLabelPosition=bottom;verticalAlign=top;html=1;outlineConnect=0;" parent="1" vertex="1">
          <mxGeometry x="392" y="446" width="30" height="60" as="geometry" />
        </mxCell>
        <mxCell id="XyXh-LPCTBvs2xRVVJFw-39" value="&lt;font face=&quot;Times New Roman&quot;&gt;изменять учётные записи&lt;/font&gt;" style="ellipse;whiteSpace=wrap;html=1;" parent="1" vertex="1">
          <mxGeometry x="240" y="316" width="120" height="60" as="geometry" />
        </mxCell>
        <mxCell id="XyXh-LPCTBvs2xRVVJFw-40" value="&lt;font face=&quot;Times New Roman&quot;&gt;создавать учётные записи&lt;/font&gt;" style="ellipse;whiteSpace=wrap;html=1;" parent="1" vertex="1">
          <mxGeometry x="365" y="306" width="130" height="60" as="geometry" />
        </mxCell>
        <mxCell id="XyXh-LPCTBvs2xRVVJFw-41" value="&lt;font face=&quot;Times New Roman&quot;&gt;удалять учётные записи&lt;/font&gt;" style="ellipse;whiteSpace=wrap;html=1;" parent="1" vertex="1">
          <mxGeometry x="490" y="363" width="95" height="60" as="geometry" />
        </mxCell>
        <mxCell id="Egnxo4WgZj2DpysYqwuv-6" style="rounded=0;orthogonalLoop=1;jettySize=auto;html=1;exitX=1;exitY=0.3333333333333333;exitDx=0;exitDy=0;exitPerimeter=0;entryX=0.5;entryY=0;entryDx=0;entryDy=0;endArrow=none;endFill=0;" parent="1" source="XyXh-LPCTBvs2xRVVJFw-11" target="XyXh-LPCTBvs2xRVVJFw-17" edge="1">
          <mxGeometry relative="1" as="geometry">
            <mxPoint x="495" y="530" as="sourcePoint" />
            <mxPoint x="492" y="388" as="targetPoint" />
          </mxGeometry>
        </mxCell>
        <mxCell id="Egnxo4WgZj2DpysYqwuv-8" style="rounded=0;orthogonalLoop=1;jettySize=auto;html=1;entryX=0.5;entryY=0;entryDx=0;entryDy=0;endArrow=none;endFill=0;exitX=1;exitY=0.3333333333333333;exitDx=0;exitDy=0;exitPerimeter=0;" parent="1" source="XyXh-LPCTBvs2xRVVJFw-11" target="XyXh-LPCTBvs2xRVVJFw-18" edge="1">
          <mxGeometry relative="1" as="geometry">
            <mxPoint x="130" y="260" as="sourcePoint" />
            <mxPoint x="261" y="364" as="targetPoint" />
          </mxGeometry>
        </mxCell>
        <mxCell id="Egnxo4WgZj2DpysYqwuv-9" style="rounded=0;orthogonalLoop=1;jettySize=auto;html=1;entryX=0.5;entryY=0;entryDx=0;entryDy=0;endArrow=none;endFill=0;exitX=0;exitY=0.3333333333333333;exitDx=0;exitDy=0;exitPerimeter=0;" parent="1" source="XyXh-LPCTBvs2xRVVJFw-11" target="XyXh-LPCTBvs2xRVVJFw-16" edge="1">
          <mxGeometry relative="1" as="geometry">
            <mxPoint x="140" y="273" as="sourcePoint" />
            <mxPoint x="282" y="330" as="targetPoint" />
          </mxGeometry>
        </mxCell>
        <mxCell id="Egnxo4WgZj2DpysYqwuv-10" style="rounded=0;orthogonalLoop=1;jettySize=auto;html=1;entryX=0;entryY=0.5;entryDx=0;entryDy=0;endArrow=none;endFill=0;exitX=1;exitY=0.3333333333333333;exitDx=0;exitDy=0;exitPerimeter=0;" parent="1" source="XyXh-LPCTBvs2xRVVJFw-11" target="XyXh-LPCTBvs2xRVVJFw-12" edge="1">
          <mxGeometry relative="1" as="geometry">
            <mxPoint x="140" y="273" as="sourcePoint" />
            <mxPoint x="348" y="300" as="targetPoint" />
          </mxGeometry>
        </mxCell>
        <mxCell id="Egnxo4WgZj2DpysYqwuv-19" style="rounded=0;orthogonalLoop=1;jettySize=auto;html=1;entryX=1;entryY=0.3333333333333333;entryDx=0;entryDy=0;endArrow=none;endFill=0;entryPerimeter=0;exitX=0;exitY=1;exitDx=0;exitDy=0;" parent="1" source="XyXh-LPCTBvs2xRVVJFw-41" target="XyXh-LPCTBvs2xRVVJFw-37" edge="1">
          <mxGeometry relative="1" as="geometry">
            <mxPoint x="742" y="105" as="sourcePoint" />
            <mxPoint x="837" y="190" as="targetPoint" />
          </mxGeometry>
        </mxCell>
        <mxCell id="Egnxo4WgZj2DpysYqwuv-20" style="rounded=0;orthogonalLoop=1;jettySize=auto;html=1;entryX=1;entryY=0.3333333333333333;entryDx=0;entryDy=0;endArrow=none;endFill=0;entryPerimeter=0;exitX=0.5;exitY=1;exitDx=0;exitDy=0;" parent="1" source="XyXh-LPCTBvs2xRVVJFw-40" target="XyXh-LPCTBvs2xRVVJFw-37" edge="1">
          <mxGeometry relative="1" as="geometry">
            <mxPoint x="737" y="170" as="sourcePoint" />
            <mxPoint x="837" y="190" as="targetPoint" />
          </mxGeometry>
        </mxCell>
        <mxCell id="Egnxo4WgZj2DpysYqwuv-22" style="rounded=0;orthogonalLoop=1;jettySize=auto;html=1;entryX=0;entryY=0.3333333333333333;entryDx=0;entryDy=0;endArrow=none;endFill=0;entryPerimeter=0;exitX=1;exitY=1;exitDx=0;exitDy=0;" parent="1" source="XyXh-LPCTBvs2xRVVJFw-39" target="XyXh-LPCTBvs2xRVVJFw-37" edge="1">
          <mxGeometry relative="1" as="geometry">
            <mxPoint x="760" y="240" as="sourcePoint" />
            <mxPoint x="837" y="190" as="targetPoint" />
          </mxGeometry>
        </mxCell>
        <mxCell id="Egnxo4WgZj2DpysYqwuv-23" style="rounded=0;orthogonalLoop=1;jettySize=auto;html=1;entryX=0;entryY=0.3333333333333333;entryDx=0;entryDy=0;endArrow=none;endFill=0;entryPerimeter=0;exitX=1;exitY=0.5;exitDx=0;exitDy=0;" parent="1" source="XyXh-LPCTBvs2xRVVJFw-36" edge="1">
          <mxGeometry relative="1" as="geometry">
            <mxPoint x="743" y="289" as="sourcePoint" />
            <mxPoint x="820" y="390" as="targetPoint" />
          </mxGeometry>
        </mxCell>
        <mxCell id="Egnxo4WgZj2DpysYqwuv-24" style="rounded=0;orthogonalLoop=1;jettySize=auto;html=1;entryX=0;entryY=0.3333333333333333;entryDx=0;entryDy=0;endArrow=none;endFill=0;entryPerimeter=0;exitX=1;exitY=0.5;exitDx=0;exitDy=0;" parent="1" source="XyXh-LPCTBvs2xRVVJFw-34" edge="1">
          <mxGeometry relative="1" as="geometry">
            <mxPoint x="780" y="375" as="sourcePoint" />
            <mxPoint x="820" y="390" as="targetPoint" />
          </mxGeometry>
        </mxCell>
        <mxCell id="Egnxo4WgZj2DpysYqwuv-25" style="rounded=0;orthogonalLoop=1;jettySize=auto;html=1;entryX=0;entryY=0.3333333333333333;entryDx=0;entryDy=0;endArrow=none;endFill=0;entryPerimeter=0;exitX=1;exitY=0.5;exitDx=0;exitDy=0;" parent="1" source="XyXh-LPCTBvs2xRVVJFw-35" edge="1">
          <mxGeometry relative="1" as="geometry">
            <mxPoint x="770" y="430" as="sourcePoint" />
            <mxPoint x="820" y="390" as="targetPoint" />
          </mxGeometry>
        </mxCell>
        <mxCell id="Egnxo4WgZj2DpysYqwuv-36" style="rounded=0;orthogonalLoop=1;jettySize=auto;html=1;exitX=0.5;exitY=0;exitDx=0;exitDy=0;entryX=0;entryY=1;entryDx=0;entryDy=0;strokeColor=default;dashed=1;endArrow=open;endFill=0;" parent="1" source="XyXh-LPCTBvs2xRVVJFw-13" target="XyXh-LPCTBvs2xRVVJFw-12" edge="1">
          <mxGeometry relative="1" as="geometry">
            <mxPoint x="580" y="303" as="sourcePoint" />
            <mxPoint x="600" y="395" as="targetPoint" />
          </mxGeometry>
        </mxCell>
        <mxCell id="Egnxo4WgZj2DpysYqwuv-37" value="&amp;lt;&amp;lt;include&amp;gt;&amp;gt;" style="edgeLabel;html=1;align=center;verticalAlign=middle;resizable=0;points=[];" parent="Egnxo4WgZj2DpysYqwuv-36" vertex="1" connectable="0">
          <mxGeometry x="-0.4039" y="2" relative="1" as="geometry">
            <mxPoint x="-2" y="3" as="offset" />
          </mxGeometry>
        </mxCell>
        <mxCell id="Egnxo4WgZj2DpysYqwuv-38" style="rounded=0;orthogonalLoop=1;jettySize=auto;html=1;exitX=0;exitY=0;exitDx=0;exitDy=0;entryX=0.5;entryY=1;entryDx=0;entryDy=0;strokeColor=default;dashed=1;endArrow=open;endFill=0;" parent="1" source="XyXh-LPCTBvs2xRVVJFw-14" target="XyXh-LPCTBvs2xRVVJFw-12" edge="1">
          <mxGeometry relative="1" as="geometry">
            <mxPoint x="485" y="205" as="sourcePoint" />
            <mxPoint x="374" y="235" as="targetPoint" />
          </mxGeometry>
        </mxCell>
        <mxCell id="Egnxo4WgZj2DpysYqwuv-39" value="&amp;lt;&amp;lt;include&amp;gt;&amp;gt;" style="edgeLabel;html=1;align=center;verticalAlign=middle;resizable=0;points=[];" parent="Egnxo4WgZj2DpysYqwuv-38" vertex="1" connectable="0">
          <mxGeometry x="-0.4039" y="2" relative="1" as="geometry">
            <mxPoint x="-7" y="-3" as="offset" />
          </mxGeometry>
        </mxCell>
        <mxCell id="Egnxo4WgZj2DpysYqwuv-40" style="rounded=0;orthogonalLoop=1;jettySize=auto;html=1;exitX=0.5;exitY=0;exitDx=0;exitDy=0;strokeColor=default;dashed=1;endArrow=open;endFill=0;entryX=1;entryY=1;entryDx=0;entryDy=0;" parent="1" source="XyXh-LPCTBvs2xRVVJFw-15" edge="1" target="XyXh-LPCTBvs2xRVVJFw-12">
          <mxGeometry relative="1" as="geometry">
            <mxPoint x="479" y="247" as="sourcePoint" />
            <mxPoint x="400" y="270" as="targetPoint" />
          </mxGeometry>
        </mxCell>
        <mxCell id="Egnxo4WgZj2DpysYqwuv-41" value="&amp;lt;&amp;lt;include&amp;gt;&amp;gt;" style="edgeLabel;html=1;align=center;verticalAlign=middle;resizable=0;points=[];" parent="Egnxo4WgZj2DpysYqwuv-40" vertex="1" connectable="0">
          <mxGeometry x="-0.4039" y="2" relative="1" as="geometry">
            <mxPoint x="1" y="1" as="offset" />
          </mxGeometry>
        </mxCell>
        <mxCell id="VJYsyFOH-U5dG6P_GdMS-1" value="RandomDataGo" style="text;html=1;align=center;verticalAlign=middle;whiteSpace=wrap;rounded=0;fontFamily=Times New Roman;" parent="1" vertex="1">
          <mxGeometry x="170" y="20" width="110" height="30" as="geometry" />
        </mxCell>
        <mxCell id="cLkhvZupjhJeQ4Qh2MIf-3" style="rounded=0;orthogonalLoop=1;jettySize=auto;html=1;exitX=0.5;exitY=0;exitDx=0;exitDy=0;entryX=1;entryY=1;entryDx=0;entryDy=0;endArrow=open;endFill=0;dashed=1;" edge="1" parent="1" source="cLkhvZupjhJeQ4Qh2MIf-1" target="XyXh-LPCTBvs2xRVVJFw-22">
          <mxGeometry relative="1" as="geometry" />
        </mxCell>
        <mxCell id="cLkhvZupjhJeQ4Qh2MIf-4" value="&amp;lt;&amp;lt;include&amp;gt;&amp;gt;" style="edgeLabel;html=1;align=center;verticalAlign=middle;resizable=0;points=[];" vertex="1" connectable="0" parent="cLkhvZupjhJeQ4Qh2MIf-3">
          <mxGeometry x="-0.4138" y="1" relative="1" as="geometry">
            <mxPoint y="-49" as="offset" />
          </mxGeometry>
        </mxCell>
        <mxCell id="cLkhvZupjhJeQ4Qh2MIf-1" value="&lt;font face=&quot;Times New Roman&quot;&gt;просматривать список входящих сообщений&lt;/font&gt;" style="ellipse;whiteSpace=wrap;html=1;" vertex="1" parent="1">
          <mxGeometry x="240" y="240" width="110" height="60" as="geometry" />
        </mxCell>
        <mxCell id="cLkhvZupjhJeQ4Qh2MIf-5" style="rounded=0;orthogonalLoop=1;jettySize=auto;html=1;exitX=0.5;exitY=0;exitDx=0;exitDy=0;entryX=0;entryY=1;entryDx=0;entryDy=0;dashed=1;endArrow=open;endFill=0;" edge="1" parent="1" source="cLkhvZupjhJeQ4Qh2MIf-2" target="XyXh-LPCTBvs2xRVVJFw-22">
          <mxGeometry relative="1" as="geometry" />
        </mxCell>
        <mxCell id="cLkhvZupjhJeQ4Qh2MIf-6" value="&amp;lt;&amp;lt;include&amp;gt;&amp;gt;" style="edgeLabel;html=1;align=center;verticalAlign=middle;resizable=0;points=[];" vertex="1" connectable="0" parent="cLkhvZupjhJeQ4Qh2MIf-5">
          <mxGeometry x="-0.3212" y="-1" relative="1" as="geometry">
            <mxPoint x="7" y="-8" as="offset" />
          </mxGeometry>
        </mxCell>
        <mxCell id="cLkhvZupjhJeQ4Qh2MIf-9" value="&lt;font face=&quot;Times New Roman&quot;&gt;получать список учётных записей&lt;/font&gt;" style="ellipse;whiteSpace=wrap;html=1;" vertex="1" parent="1">
          <mxGeometry x="180" y="376" width="120" height="47" as="geometry" />
        </mxCell>
        <mxCell id="cLkhvZupjhJeQ4Qh2MIf-2" value="&lt;font face=&quot;Times New Roman&quot;&gt;просматривать список исхо&lt;/font&gt;&lt;span style=&quot;font-family: &amp;quot;Times New Roman&amp;quot;; background-color: initial;&quot;&gt;дящих сообщений&lt;/span&gt;" style="ellipse;whiteSpace=wrap;html=1;" vertex="1" parent="1">
          <mxGeometry x="180" y="155" width="110" height="60" as="geometry" />
        </mxCell>
      </root>
    </mxGraphModel>
  </diagram>
</mxfile>
